<svg class="svg-icon" style="width: 1em; height: 1em;vertical-align: middle;fill: currentColor;overflow: hidden;" viewBox="0 0 1024 1024" version="1.1" xmlns="http://www.w3.org/2000/svg"><path d="M224 0h576A160 160 0 0 1 960 160v704a160 160 0 0 1-160 160h-576A160 160 0 0 1 64 864v-704A160 160 0 0 1 224 0z m0 64A96 96 0 0 0 128 160v704A96 96 0 0 0 224 960h576a96 96 0 0 0 96-96v-704A96 96 0 0 0 800 64h-576z m64 448a32 32 0 0 1 0-64h448a32 32 0 1 1 0 64h-448z m0 128a32 32 0 0 1 0-64h448a32 32 0 1 1 0 64h-448z m0 128a32 32 0 1 1 0-64h448a32 32 0 1 1 0 64h-448z"  /></svg>