<svg class="svg-icon" style="width: 1em; height: 1em;vertical-align: middle;fill: currentColor;overflow: hidden;" viewBox="0 0 1024 1024" version="1.1" xmlns="http://www.w3.org/2000/svg"><path d="M232.727273 512m-93.090909 0a2 2 0 1 0 186.181818 0 2 2 0 1 0-186.181818 0Z"  /><path d="M791.272727 512m-93.090909 0a2 2 0 1 0 186.181818 0 2 2 0 1 0-186.181818 0Z"  /><path d="M512 512m-93.090909 0a2 2 0 1 0 186.181818 0 2 2 0 1 0-186.181818 0Z"  /><path d="M1024 512c0-282.763636-229.236364-512-512-512C229.236364 0 0 229.236364 0 512c0 282.763636 229.236364 512 512 512C794.763636 1024 1024 794.763636 1024 512zM46.545455 512C46.545455 254.929455 254.929455 46.545455 512 46.545455s465.454545 208.384 465.454545 465.454545-208.384 465.454545-465.454545 465.454545S46.545455 769.070545 46.545455 512z"  /></svg>