<svg class="svg-icon" style="width: 1em;height: 1em;vertical-align: middle;fill: currentColor;overflow: hidden;" viewBox="0 0 1024 1024" version="1.1" xmlns="http://www.w3.org/2000/svg"><path d="M514.133333 938.666667H512c-81.066667 0-151.466667-61.866667-168.533333-145.066667-2.133333-10.666667 4.266667-23.466667 17.066666-25.6 10.666667-2.133333 23.466667 4.266667 25.6 17.066667 12.8 64 66.133333 110.933333 125.866667 110.933333h4.266667c59.733333 0 113.066667-46.933333 125.866666-110.933333 2.133333-10.666667 12.8-19.2 25.6-17.066667 10.666667 2.133333 19.2 12.8 17.066667 25.6-19.2 83.2-89.6 145.066667-170.666667 145.066667z"  /><path d="M834.133333 810.666667H189.866667C155.733333 810.666667 128 782.933333 128 748.8c0-4.266667 0-6.4 2.133333-8.533333l78.933334-155.733334V366.933333C209.066667 211.2 334.933333 85.333333 492.8 85.333333H533.333333c155.733333 0 283.733333 125.866667 283.733334 281.6v215.466667l78.933333 155.733333v10.666667c0 34.133333-27.733333 61.866667-61.866667 61.866667zM170.666667 753.066667c2.133333 8.533333 10.666667 14.933333 19.2 14.933333h644.266666c8.533333 0 17.066667-6.4 19.2-14.933333L774.4 597.333333c-2.133333-2.133333-2.133333-6.4-2.133333-8.533333V366.933333C772.266667 234.666667 665.6 128 531.2 128H490.666667c-132.266667 0-241.066667 106.666667-241.066667 238.933333v221.866667c0 4.266667 0 6.4-2.133333 8.533333L170.666667 753.066667z"  /></svg>